# xmcd CD database file
#
# Track frame offsets:
#	182
#	8916
#	23878
#	34472
#	43843
#	56910
#	67947
#	83647
#	99661
#	109729
#	123770
#	138118
#	152071
#	164433
#	177902
#	190619
#	204910
#	219271
#	232275
#	246125
#	256548
#	270629
#	282147
#	295288
#
# Disc length: 4123 seconds
#
# Revision: 0
# Processed by: cddbd v1.5.1PL0 Copyright (c) Steve Scherf et al.
# Submitted via: CDex 1.51
#
DISCID=4f101918
DTITLE=HERMAN CHITTISON - 1944-1945
DYEAR=1944
DGENRE=Jazz
TTITLE0=How High The Moon
TTITLE1=The Song Is Ended
TTITLE2=Just One Of Those Things
TTITLE3=Schubert's Serenade
TTITLE4=As Time Goes By
TTITLE5=Frasquita Serenade
TTITLE6=My Old Flame
TTITLE7=Lover
TTITLE8=Persian Rug
TTITLE9=The Song Is Ended
TTITLE10=Serenade
TTITLE11=How High The Moon
TTITLE12=There's Beauty Everywhere
TTITLE13=I'll Always Be In Love With You
TTITLE14=Poor Butterfly
TTITLE15=These Foolish Things
TTITLE16=I Should Care
TTITLE17=All Of My Life
TTITLE18=I'll Always Be In Love With You
TTITLE19=I Had The Craziest Dream
TTITLE20=Where Or When
TTITLE21=Triste
TTITLE22=To A Wild Rose
TTITLE23=You Gave Me Everything But Love
EXTD=YEAR: 1944
EXTT0=
EXTT1=
EXTT2=
EXTT3=
EXTT4=
EXTT5=
EXTT6=
EXTT7=
EXTT8=
EXTT9=
EXTT10=
EXTT11=
EXTT12=
EXTT13=
EXTT14=
EXTT15=
EXTT16=
EXTT17=
EXTT18=
EXTT19=
EXTT20=
EXTT21=
EXTT22=
EXTT23=
PLAYORDER=
